# xmcd
#
# Track frame offsets: 
#        150
#        19447
#        32019
#        42521
#        57993
#        78082
#        94538
#        108603
#        124966
#        136062
#        151608
#        167147
#        182621
#        196933
#        215133
#        226532
#        239343
#        257338
#        276202
#        294957
#        317450
#        333783
#        345634
#
# Disc length: 4798 seconds
#
# Revision: 0
# Processed by: cddbd v1.5.2PL0 Copyright (c) Steve Scherf et al.
# Submitted via: ExactAudioCopy v0.99pb4
#
DISCID=3512bc17
DTITLE=Various Artist - prevue promo 1151-3 christmas 2004
DYEAR=2004
DGENRE=christmas
TTITLE0=Josh Groban - Believe
TTITLE1=Kenny Rogers - White Christmas
TTITLE2=Chris Isaak - Christmas On TV
TTITLE3=Deana Carter - Carol Of The Bells
TTITLE4=Clint Black - Christmas With You
TTITLE5=Barenaked Ladies feat.  Michael Buble - Elf's Lament
TTITLE6=Harry Connick, Jr. (Soloist: Jimmy Greene - Tenor Sax) - I Won
TTITLE6=der As I Wander
TTITLE7=Kenny Chesney feat.  Randy Owen - Christmas In Dixie
TTITLE8=Christmas Grass Instrumental - We Wish You A Merry Christmas(C
TTITLE8=hristmas - Instrumental)
TTITLE9=Dolly Parton - Rudolph, The Red-Nosed Reindeer
TTITLE10=Clay Aiken - Have Yourself A Merry Little Christmas
TTITLE11=Vince Vance and The Valiants - Christmas Just Ain't Christmas W
TTITLE11=ithout You
TTITLE12=Jim Weatherly - Gimme Some Lovin' For Christmas
TTITLE13=George Thorogood and The Destroyers - Merry Christmas Baby
TTITLE14=Chris Isaak feat.  Stevie Nicks - Santa Claus Is Coming To To
TTITLE14=wn
TTITLE15=Elvis Presley - On A Snowy Christmas Night
TTITLE16=Will Downing - Little Drummer Boy, The( Radio Edit)
TTITLE17=LeAnn Rimes - Christmas Song, The
TTITLE18=Olivia Newton-John with Vince Gill and The London Symphony Orch
TTITLE18=estra - Away In A Manger
TTITLE19=Dianne Reeves - A Child Is Born
TTITLE20=Clay Aiken - O Holy Night
TTITLE21=Mannheim Steamroller - Celebration(Christmas - Instrumental)
TTITLE22=Andrew Heller - Sleigh Ride
EXTD=
EXTT0=
EXTT1=
EXTT2=
EXTT3=
EXTT4=
EXTT5=
EXTT6=
EXTT7=
EXTT8=
EXTT9=
EXTT10=
EXTT11=
EXTT12=
EXTT13=
EXTT14=
EXTT15=
EXTT16=
EXTT17=
EXTT18=
EXTT19=
EXTT20=
EXTT21=
EXTT22=
PLAYORDER=
